<?xml version="1.0" encoding="UTF-8" standalone="no"?>
<svg xmlns="http://www.w3.org/2000/svg" viewBox="0 0 512 512">
  <!-- Фіолетовий фон -->
  <circle cx="256" cy="256" r="256" fill="#8e24aa"/>
  
  <!-- Білий літак -->
  <path d="M380 130 C 375 135, 370 140, 365 145 L 145 365 C 140 370, 135 375, 130 380 L 150 400 C 155 395, 160 390, 165 385 L 385 165 C 390 160, 395 155, 400 150 L 380 130 Z" fill="#ffffff"/>
  <path d="M130 130 L 150 150 L 230 190 L 270 150 L 230 110 L 190 130 L 130 130 Z" fill="#ffffff"/>
  <path d="M380 380 L 360 360 L 320 280 L 360 240 L 400 280 L 380 320 L 380 380 Z" fill="#ffffff"/>
  <path d="M320 190 L 340 170 L 350 180 L 330 200 L 320 190 Z" fill="#ffffff"/>
  <path d="M190 320 L 170 340 L 180 350 L 200 330 L 190 320 Z" fill="#ffffff"/>
</svg>
